<svg width="11" height="11" viewBox="0 0 11 11" fill="none" xmlns="http://www.w3.org/2000/svg">
<path fill-rule="evenodd" clip-rule="evenodd" d="M5.73216 0.155474C5.91031 0.155501 6.08117 0.226284 6.20714 0.35226C6.33312 0.478235 6.4039 0.649086 6.40393 0.827242L6.40393 4.43123L10.0079 4.43123C10.0971 4.42968 10.1857 4.44591 10.2686 4.47897C10.3515 4.51203 10.4269 4.56127 10.4905 4.6238C10.5542 4.68634 10.6047 4.76091 10.6392 4.84319C10.6737 4.92546 10.6915 5.01378 10.6915 5.103C10.6915 5.19221 10.6737 5.28053 10.6392 5.3628C10.6047 5.44508 10.5542 5.51966 10.4905 5.58219C10.4269 5.64472 10.3515 5.69396 10.2686 5.72702C10.1857 5.76008 10.0971 5.77631 10.0079 5.77476L6.40393 5.77476L6.40393 9.37875C6.40087 9.55489 6.32875 9.72278 6.2031 9.84627C6.07745 9.96975 5.90833 10.0389 5.73216 10.0389C5.55599 10.0389 5.38687 9.96975 5.26122 9.84627C5.13557 9.72278 5.06345 9.55489 5.06039 9.37875L5.06039 5.77476H1.45641C1.28026 5.7717 1.11237 5.69958 0.988887 5.57393C0.865405 5.44828 0.796212 5.27916 0.796212 5.10299C0.796212 4.92683 0.865405 4.7577 0.988888 4.63206C1.11237 4.50641 1.28026 4.43429 1.45641 4.43123L5.06039 4.43123L5.06039 0.827242C5.06042 0.649086 5.1312 0.478235 5.25718 0.352259C5.38315 0.226284 5.554 0.1555 5.73216 0.155474Z" fill="#08220E"/>
</svg>
