<svg width="25" height="25" viewBox="0 0 25 25" fill="none" xmlns="http://www.w3.org/2000/svg">
<path d="M20.1515 8.63189V14.0906C20.1515 17.3553 18.286 18.7544 15.4878 18.7544H6.17083C5.69386 18.7544 5.23808 18.712 4.8141 18.6166C4.54912 18.5742 4.29474 18.5 4.06155 18.4152C2.47163 17.8217 1.50708 16.4437 1.50708 14.0906V8.63189C1.50708 5.36726 3.37258 3.96817 6.17083 3.96817H15.4878C17.862 3.96817 19.5686 4.97511 20.0243 7.27519C20.0985 7.69917 20.1515 8.13372 20.1515 8.63189Z" stroke="white" stroke-width="1.2" stroke-miterlimit="10" stroke-linecap="round" stroke-linejoin="round"/>
<path d="M23.3319 11.8119V17.2706C23.3319 20.5352 21.4664 21.9343 18.6682 21.9343H9.35126C8.5669 21.9343 7.85675 21.8284 7.24198 21.5952C5.98065 21.1288 5.12208 20.1643 4.8147 18.6168C5.23868 18.7122 5.69445 18.7545 6.17143 18.7545H15.4884C18.2866 18.7545 20.1521 17.3554 20.1521 14.0908V8.63203C20.1521 8.13385 20.1097 7.68871 20.0249 7.27533C22.0388 7.69931 23.3319 9.1196 23.3319 11.8119Z" stroke="white" stroke-width="1.2" stroke-miterlimit="10" stroke-linecap="round" stroke-linejoin="round"/>
<path d="M10.8212 14.1647C12.3666 14.1647 13.6194 12.9119 13.6194 11.3664C13.6194 9.82098 12.3666 8.56815 10.8212 8.56815C9.27573 8.56815 8.02289 9.82098 8.02289 11.3664C8.02289 12.9119 9.27573 14.1647 10.8212 14.1647Z" stroke="white" stroke-width="1.2" stroke-miterlimit="10" stroke-linecap="round" stroke-linejoin="round"/>
<path d="M4.76141 9.03467V13.6985" stroke="white" stroke-width="1.2" stroke-miterlimit="10" stroke-linecap="round" stroke-linejoin="round"/>
<path d="M16.8881 9.035V13.6988" stroke="white" stroke-width="1.2" stroke-miterlimit="10" stroke-linecap="round" stroke-linejoin="round"/>
</svg>
