<svg width="23" height="23" viewBox="0 0 23 23" fill="none" xmlns="http://www.w3.org/2000/svg">
<g clip-path="url(#clip0_4_2018)">
<path d="M2.19475 5.08881C1.84344 5.08881 1.55765 4.80302 1.55765 4.45166H0.269531V17.7568C0.269531 18.8184 1.13317 19.682 2.19475 19.682H4.8311V5.08881H2.19475Z" fill="#FED330"/>
<path d="M3.5426 5.08789H7.40709V19.6811H3.5426V5.08789Z" fill="#FF641A"/>
<path d="M6.11914 6.37769H20.7974V19.6828H6.11914V6.37769Z" fill="#FED330"/>
<path d="M10.5356 6.37769H20.7996V19.6828H10.5356V6.37769Z" fill="#FABE2C"/>
<path d="M2.19475 2.52563C1.13317 2.52563 0.269531 3.38932 0.269531 4.45086C0.269531 5.51248 1.13317 6.37612 2.19475 6.37612H19.3376V2.52563H2.19475Z" fill="#FABE2C"/>
<path d="M10.5356 2.52563H19.3395V6.37612H10.5356V2.52563Z" fill="#FF9500"/>
<path d="M12.6307 9.47583H22.2574V15.2936H12.6307V9.47583Z" fill="#FABE2C"/>
<path d="M12.6307 9.47583H22.2574V15.2936H12.6307V9.47583Z" fill="#FF9500"/>
<path d="M15.0267 11.74H16.4869V13.0281H15.0267V11.74Z" fill="#FED330"/>
<path d="M15.0267 11.74H16.4869V13.0281H15.0267V11.74Z" fill="#FABE2C"/>
</g>
<defs>
<clipPath id="clip0_4_2018">
<rect width="21.9883" height="21.9883" fill="white" transform="translate(0.269531 0.111572)"/>
</clipPath>
</defs>
</svg>
